<svg xmlns="http://www.w3.org/2000/svg" viewBox="0 0 223.6 23.65"><title>Asset 2</title><path d="M5.71,18.74l.93-1.58c-1.1-1.45-1.32-3.63-1.32-5.84,0-3.88.69-7.62,5.54-7.62a5.79,5.79,0,0,1,3.23.83l.37-.63H16l-.93,1.56c1.1,1.46,1.32,3.64,1.32,5.86,0,3.88-.65,7.62-5.54,7.62a5.62,5.62,0,0,1-3.23-.83l-.37.63Zm1.75-3,5.91-10A3.84,3.84,0,0,0,10.86,5C7.28,5,6.78,7.87,6.78,11.32A10.67,10.67,0,0,0,7.46,15.77Zm6.78-8.91-5.91,10a3.84,3.84,0,0,0,2.53.77c3.58,0,4.08-2.91,4.08-6.35A10.41,10.41,0,0,0,14.24,6.86Z" style="fill:#fff"/><path d="M24,5c-2.93,0-3.56,1.33-3.56,2.89,0,2,1.29,2.24,3.62,2.54,2.91.37,4.61,1.28,4.61,4.07,0,2-1.07,4.48-5.48,4.48a12.37,12.37,0,0,1-4.16-.79V16.84a11.15,11.15,0,0,0,4.18.83c3.09,0,4-1.42,4-3.21,0-2-.93-2.45-3.41-2.77-3.5-.43-4.75-1.44-4.75-3.86,0-1.72.83-4.13,5-4.13a9.11,9.11,0,0,1,3.86.69V5.74A8.93,8.93,0,0,0,24,5Z" style="fill:#fff"/><path d="M36,5.2V18.74h-1.4V5.2h-4.1V3.9h9.6V5.2Z" style="fill:#fff"/><path d="M50.54,11.69H44.23v7H42.82V3.9h8.41V5.2h-7v5.19h6.31Z" style="fill:#fff"/><path d="M59.55,18.94C54.7,18.94,54,15.2,54,11.32S54.7,3.7,59.55,3.7s5.54,3.74,5.54,7.62S64.44,18.94,59.55,18.94Zm0-14C56,5,55.47,7.87,55.47,11.32s.5,6.35,4.08,6.35,4.07-2.91,4.07-6.35S63.13,5,59.55,5Z" style="fill:#fff"/><path d="M69.76,17.43h6.81v1.31H68.36V3.9h1.4Z" style="fill:#fff"/><path d="M79.44,18.74V3.9h4c4.85,0,6.25,3.2,6.25,7.42s-1.4,7.42-6.25,7.42Zm1.4-1.31h2.72c3.56,0,4.65-2.55,4.65-6.11S87.12,5.2,83.56,5.2H80.84Z" style="fill:#fff"/><path d="M136,16.46H134.9l-5-10.8L130,18.74h-1.35V3.9h1.8l5,10.78,5-10.78h1.8V18.74h-1.35L141,5.66Z" style="fill:#fff"/><path d="M154.83,13.83V3.9h1.4V14.09c0,4.21-3.46,4.85-5.24,4.85s-5.25-.64-5.25-4.85V3.9h1.41v9.93c0,3.56,2.51,3.82,3.84,3.82S154.83,17.39,154.83,13.83Z" style="fill:#fff"/><path d="M164.25,5c-2.93,0-3.56,1.33-3.56,2.89,0,2,1.28,2.24,3.62,2.54,2.91.37,4.61,1.28,4.61,4.07,0,2-1.07,4.48-5.48,4.48a12.37,12.37,0,0,1-4.16-.79V16.84a11.15,11.15,0,0,0,4.18.83c3.08,0,4-1.42,4-3.21,0-2-.93-2.45-3.4-2.77-3.5-.43-4.75-1.44-4.75-3.86,0-1.72.83-4.13,5-4.13a9.11,9.11,0,0,1,3.86.69V5.74A9,9,0,0,0,164.25,5Z" style="fill:#fff"/><path d="M180,11.69h-6.51v5.74h7.21v1.31h-8.61V3.9h8.61V5.2h-7.21v5.19H180Z" style="fill:#fff"/><path d="M191.86,11.69h-6.51v5.74h7.2v1.31h-8.61V3.9h8.61V5.2h-7.2v5.19h6.51Z" style="fill:#fff"/><path d="M205.1,18.74l-8-12,0,12h-1.34V3.9h1l8,12,0-12h1.35V18.74Z" style="fill:#fff"/><path d="M217.59,11.69h-6.51v5.74h7.2v1.31h-8.61V3.9h8.61V5.2h-7.2v5.19h6.51Z" style="fill:#fff"/><path d="M103.1,8.34a3.81,3.81,0,1,0,0,5.39h0l1.36-1.36L105.8,11l-1.41-1.41L103.1,8.34Z" style="fill:#ca4570"/><path d="M115.12,8.34a3.81,3.81,0,1,1,0,5.39h0l-1.36-1.36L112.42,11l1.41-1.41,1.29-1.28Z" style="fill:#76b9da"/><path d="M106.42,6.5a3.81,3.81,0,1,1,5.39,0h0l-1.35,1.35L109.12,9.2l-1.41-1.41-1.29-1.28Z" style="fill:#ebc326"/><path d="M111.81,15.56a3.81,3.81,0,1,1-5.39,0h0l1.36-1.36,1.34-1.34,1.4,1.41,1.29,1.29Z" style="fill:#95c11f"/><line y1="23.52" x2="100.04" y2="23.52" style="fill:#fff;stroke:#fff;stroke-width:0.25px"/><line x1="118.34" y1="23.52" x2="223.6" y2="23.52" style="fill:none;stroke:#fff;stroke-width:0.25px"/></svg>